<svg width="32.000000" height="32.000000" viewBox="0 0 32 32" fill="none" xmlns="http://www.w3.org/2000/svg" xmlns:xlink="http://www.w3.org/1999/xlink">
	<desc>
			Created with Pixso.
	</desc>
	<defs/>
	<path id="Vector" d="M16 0C24.8379 0 32 7.16211 32 16C32 24.8379 24.8379 32 16 32C7.16211 32 0 24.8379 0 16C0 7.16211 7.16211 0 16 0Z" fill="#1A1917" fill-opacity="1.000000" fill-rule="evenodd"/>
	<path id="Vector" d="M16.0625 21.7832L6.85938 18.3145L6.85938 24.1055L6.85938 24.3887L6.57227 24.3887L4.93359 24.3887L4.64844 24.3887L4.64844 24.1055L4.64844 15.9805L4.64844 15.6953L4.93359 15.6953L6.57617 15.6953L6.625 15.6953L6.67578 15.7148L16.1309 19.25L25.3027 15.7168L25.3555 15.6953L25.4062 15.6953L27.0645 15.6953L27.3496 15.6953L27.3496 15.9805L27.3496 24.1055L27.3496 24.3887L27.0645 24.3887L25.4258 24.3887L25.1426 24.3887L25.1426 24.1055L25.1484 18.332L16.2656 21.7812L16.1641 21.8223L16.0625 21.7832Z" fill="#FFFFFF" fill-opacity="1.000000" fill-rule="nonzero"/>
	<path id="Vector" d="M15.6035 10.459L21.5977 10.459L21.8086 10.459L21.8066 10.6699C21.8008 11.3848 21.7891 11.9688 21.7656 12.4277C21.7422 12.9004 21.707 13.248 21.6641 13.4688C21.6133 13.7148 21.5508 13.9336 21.4688 14.123C21.3867 14.3184 21.2891 14.4824 21.1719 14.6172C21.0566 14.7539 20.9121 14.873 20.7383 14.9805C20.5703 15.082 20.375 15.1699 20.1523 15.2441L20.1504 15.2441C19.8535 15.3398 19.3809 15.4141 18.7305 15.459C18.0879 15.5059 17.2754 15.5293 16.2891 15.5293C15.3672 15.5293 14.5742 15.5137 13.9062 15.4824C13.2441 15.4512 12.7168 15.4062 12.3242 15.3438C11.9629 15.2871 11.6504 15.1777 11.3848 15.0176C11.1152 14.8555 10.8945 14.6426 10.7266 14.377C10.543 14.0879 10.4062 13.6328 10.3184 13.0137C10.2324 12.4121 10.1895 11.6504 10.1895 10.7305C10.1895 9.44922 10.2832 8.44336 10.4707 7.71094C10.5684 7.33984 10.7305 7.03125 10.9648 6.7832C11.1973 6.53516 11.4941 6.35352 11.8574 6.24023C12.2012 6.12891 12.7012 6.04883 13.3574 5.99414C14.0059 5.94141 14.8125 5.91406 15.7754 5.91406C16.0684 5.91406 16.4023 5.91797 16.7793 5.92773C17.1406 5.93555 17.5156 5.94922 17.9023 5.9668C18.3027 5.98242 18.6348 6 18.8965 6.01953C19.168 6.03906 19.377 6.05859 19.5254 6.07617C19.8398 6.11914 20.127 6.20312 20.3828 6.32422C20.6445 6.44727 20.875 6.61328 21.0742 6.81641L21.0762 6.81836C21.1973 6.94531 21.3008 7.08008 21.3848 7.22656C21.4688 7.37305 21.5371 7.52734 21.5859 7.69531C21.6348 7.85547 21.6719 8.04883 21.6973 8.27344C21.7227 8.48633 21.7383 8.73633 21.7441 9.01758L21.748 9.23438L21.5352 9.23438L20.2734 9.23438L20.0684 9.23438L20.0645 9.02539C20.0586 8.68945 20.0332 8.41211 19.9844 8.19922C19.9434 8.01953 19.8945 7.89648 19.832 7.83203C19.7871 7.79102 19.7305 7.75195 19.6641 7.71875C19.5938 7.68555 19.5098 7.6543 19.4199 7.63281C19.3164 7.60742 19.1816 7.58594 19.0156 7.56445C18.8516 7.54297 18.6484 7.52344 18.4082 7.50391C18.0762 7.48242 17.709 7.4668 17.3086 7.45508C16.9238 7.44531 16.4805 7.43945 15.9805 7.43945C15.332 7.43945 14.7871 7.44727 14.3418 7.46484C13.8887 7.48242 13.5195 7.50586 13.2402 7.53906C12.9707 7.57031 12.75 7.61328 12.5781 7.66992C12.4219 7.71875 12.3105 7.77734 12.2402 7.8418C12.1797 7.90039 12.125 7.98828 12.0781 8.10742C12.0234 8.23828 11.9844 8.39844 11.9531 8.58789C11.9219 8.79492 11.8965 9.05859 11.8809 9.38086C11.8672 9.70312 11.8594 10.0977 11.8594 10.5605C11.8594 11.248 11.873 11.8105 11.8984 12.252C11.9258 12.6855 11.9648 13.002 12.0176 13.2031C12.0488 13.3125 12.0879 13.4062 12.1328 13.4844C12.1758 13.5586 12.2246 13.6152 12.2832 13.6621C12.3398 13.709 12.418 13.75 12.5098 13.7852C12.6094 13.8223 12.7305 13.8516 12.8652 13.875C13.1562 13.9199 13.625 13.9551 14.2734 13.9785C14.9121 14.002 15.7402 14.0137 16.7578 14.0137C17.3184 14.0137 17.7969 14.002 18.1973 13.9805C18.6035 13.957 18.9355 13.9238 19.1934 13.8828C19.4102 13.8457 19.584 13.793 19.7148 13.7148C19.8301 13.6504 19.9141 13.5703 19.959 13.4746C20.0156 13.3613 20.0586 13.1621 20.0918 12.8809C20.123 12.627 20.1426 12.3184 20.1504 11.9531L15.5957 11.9531L15.3848 11.9531L15.3848 11.7402L15.3848 10.6719L15.3848 10.4609L15.6035 10.4609L15.6035 10.459Z" fill="#0095DA" fill-opacity="1.000000" fill-rule="nonzero"/>
	<path id="Vector" d="M15.998 16.5039C16.4531 16.5039 16.8223 16.873 16.8223 17.3262C16.8223 17.7812 16.4531 18.1504 15.998 18.1504C15.5449 18.1504 15.1758 17.7812 15.1758 17.3262C15.1758 16.873 15.5449 16.5039 15.998 16.5039Z" fill="#808285" fill-opacity="1.000000" fill-rule="evenodd"/>
</svg>
