<svg xmlns="http://www.w3.org/2000/svg" width="60" height="60" viewBox="0 0 60 60" fill="none">
    <path
        d="M30 2C45.4657 2 58 14.546 58 30.026C58 45.5059 45.4657 58.0519 30 58.0519C14.5344 58.0519 2 45.5059 2 30.026C2 14.546 14.5377 2 30 2Z"
        stroke="white" stroke-width="3" stroke-miterlimit="22.9256" />
    <path
        d="M30.1118 40.3275L14.0014 34.2512V44.3941V44.8949H13.5011H10.637H10.1367V44.3941V30.1644V29.667H10.637H13.5079H13.5952L13.6825 29.6972L30.2327 35.8912L46.2826 29.7006L46.3732 29.667H46.4605H49.3616H49.8619V30.1644V44.3941V44.8949H49.3616H46.4974H45.9971V44.3941L46.0106 34.2814L30.4643 40.3275L30.2897 40.3948L30.1118 40.3275Z"
        fill="white" />
    <path
        d="M29.3036 20.4897H39.7931H40.1625L40.1591 20.8594C40.149 22.1096 40.1289 23.1347 40.0852 23.9379C40.0449 24.7647 39.9845 25.373 39.9073 25.7595C39.82 26.193 39.7092 26.5762 39.5681 26.9055C39.4238 27.2483 39.2525 27.5374 39.0477 27.7726C38.8462 28.0112 38.5944 28.2196 38.2889 28.4078C37.9934 28.5859 37.6542 28.7405 37.2648 28.8716H37.2614C36.7409 29.0396 35.9116 29.1674 34.7733 29.2514C33.6518 29.332 32.2282 29.3724 30.5023 29.3724C28.8906 29.3724 27.5005 29.3455 26.332 29.2917C25.1736 29.2379 24.2502 29.1573 23.5653 29.0497C22.9307 28.9489 22.3833 28.7573 21.92 28.4784C21.4465 28.1927 21.0604 27.8197 20.7683 27.3559C20.4459 26.8484 20.2075 26.0519 20.0531 24.9663C19.902 23.9144 19.8281 22.5801 19.8281 20.9669C19.8281 18.7219 19.9927 16.9608 20.3217 15.6803C20.4896 15.0283 20.775 14.4873 21.1846 14.0537C21.5909 13.6202 22.1114 13.3009 22.746 13.1026C23.347 12.9077 24.2234 12.7665 25.3717 12.6724C26.5066 12.5783 27.9169 12.5312 29.6024 12.5312C30.1162 12.5312 30.7004 12.538 31.3619 12.5548C31.9931 12.5682 32.6479 12.5917 33.3261 12.622C34.0279 12.6522 34.6088 12.6825 35.0654 12.7161C35.5389 12.7497 35.9049 12.7833 36.1668 12.8169C36.7174 12.8909 37.2177 13.0387 37.6677 13.2505C38.1243 13.4656 38.5273 13.7546 38.8765 14.1108L38.8798 14.1142C39.0913 14.336 39.2727 14.5746 39.4204 14.8301C39.5681 15.0855 39.6857 15.3577 39.773 15.6501C39.8569 15.9324 39.9241 16.2718 39.9677 16.6651C40.0114 17.0381 40.0382 17.475 40.0483 17.9691L40.055 18.3455H39.6823H37.4763H37.117L37.1103 17.9825C37.1002 17.391 37.0532 16.9071 36.9693 16.534C36.8988 16.2181 36.8115 16.003 36.704 15.8921C36.6234 15.8181 36.5261 15.7509 36.4085 15.6938C36.2843 15.6333 36.1399 15.5795 35.9821 15.5426C35.8008 15.4989 35.5657 15.4585 35.2736 15.4216C34.9882 15.3846 34.6323 15.351 34.2126 15.3174C33.6283 15.2771 32.987 15.2502 32.2853 15.23C31.6137 15.2132 30.8381 15.2031 29.9617 15.2031C28.8268 15.2031 27.8732 15.2165 27.0942 15.2468C26.3018 15.277 25.6571 15.3207 25.1669 15.3779C24.6968 15.4316 24.3107 15.5089 24.0085 15.6064C23.7365 15.6938 23.5384 15.7946 23.4175 15.9089C23.3101 16.0097 23.2161 16.1643 23.1321 16.3727C23.0381 16.6012 22.9676 16.8835 22.9139 17.2162C22.8601 17.5759 22.8165 18.0397 22.7896 18.6043C22.7628 19.1689 22.7493 19.8579 22.7493 20.6712C22.7493 21.8744 22.7728 22.8591 22.8198 23.6321C22.8669 24.3916 22.934 24.9462 23.028 25.299C23.0818 25.4906 23.1489 25.6553 23.2295 25.7931C23.3034 25.9208 23.394 26.0216 23.4914 26.1023C23.5921 26.1863 23.7264 26.2569 23.8876 26.3174C24.0622 26.3846 24.2737 26.435 24.5121 26.4753C25.0192 26.556 25.8418 26.6165 26.9767 26.6568C28.0915 26.6971 29.542 26.7173 31.3216 26.7173C32.302 26.7173 33.1415 26.6972 33.8432 26.6602C34.5517 26.6199 35.1326 26.5627 35.5859 26.4888C35.9653 26.4249 36.2675 26.3308 36.4992 26.1964C36.7007 26.0821 36.845 25.941 36.9256 25.7729C37.023 25.5746 37.1002 25.2285 37.1573 24.7344C37.211 24.2908 37.2446 23.7497 37.2614 23.1078H29.2902H28.9208V22.7381V20.8628V20.4931H29.3036V20.4897Z"
        fill="white" />
    <path fill-rule="evenodd" clip-rule="evenodd"
        d="M29.9971 31.0771C30.7929 31.0771 31.4376 31.7224 31.4376 32.5189C31.4376 33.3155 30.7929 33.9607 29.9971 33.9607C29.2013 33.9607 28.5566 33.3155 28.5566 32.5189C28.56 31.7224 29.2047 31.0771 29.9971 31.0771Z"
        fill="white" />
</svg>