<svg width="1460.361328" height="60.000000" viewBox="0 0 1460.36 60" fill="none" xmlns="http://www.w3.org/2000/svg" xmlns:xlink="http://www.w3.org/1999/xlink">
	<desc>
			Created with Pixso.
	</desc>
	<defs/>
	<path id="Vector" d="M75.2988 42.6113L10.9961 18.3457L10.9961 59.9727L0 59.9727L0 5.46094L10.9961 5.46094L75.0957 29.4375L137.291 5.46094L148.402 5.46094L148.402 59.9727L137.436 59.9727L137.465 18.4316L75.2988 42.6113Z" fill="#F4EFE8" fill-opacity="1.000000" fill-rule="nonzero"/>
	<path id="Vector" d="M262.059 59.9707L251.062 59.9707L251.062 42.377L168.377 42.377L168.377 59.9707L157.496 59.9707L157.496 18.8926C157.496 9.84961 161.854 5.34375 170.627 5.34375L248.898 5.34375C257.672 5.34375 262.059 9.9082 262.059 19.0078L262.059 59.9707ZM168.377 31.459L251.062 31.459L251.062 20.5957C251.062 17.707 249.619 16.2637 246.705 16.2637L172.734 16.2637C169.82 16.2637 168.377 17.7363 168.377 20.7402L168.377 31.459Z" fill="#F4EFE8" fill-opacity="1.000000" fill-rule="nonzero"/>
	<path id="Vector" d="M375.334 46.5957C375.334 55.5215 370.889 60 362 60L270.684 60L270.828 49.1094L360.037 49.1094C362.924 49.1094 364.365 47.7812 364.453 45.123L364.453 42.4941C364.51 39.6348 363.01 38.1895 359.979 38.1895L283.902 38.1895C275.1 38.1895 270.713 34.1172 270.713 25.9414L270.713 18.7188C270.713 9.88086 275.041 5.48828 283.672 5.48828L375.361 5.40234L375.361 16.293L286.008 16.293C283.152 16.293 281.68 17.7383 281.68 20.6543L281.68 22.8223C281.68 25.7676 283.094 27.2695 285.893 27.2695L362.029 27.2695C370.918 27.2695 375.361 31.5742 375.361 40.1836L375.361 46.5957L375.334 46.5957Z" fill="#F4EFE8" fill-opacity="1.000000" fill-rule="nonzero"/>
	<path id="Vector" d="M488.816 46.5957C488.816 55.5215 484.371 60 475.482 60L384.166 60L384.311 49.1094L473.549 49.1094C476.434 49.1094 477.877 47.7812 477.965 45.123L477.965 42.4941C478.021 39.6348 476.521 38.1895 473.49 38.1895L397.414 38.1895C388.611 38.1895 384.225 34.1172 384.225 25.9414L384.225 18.7188C384.225 9.88086 388.553 5.48828 397.182 5.48828L488.873 5.40234L488.873 16.293L399.52 16.293C396.662 16.293 395.191 17.7383 395.191 20.6543L395.191 22.8223C395.191 25.7676 396.605 27.2695 399.404 27.2695L475.512 27.2695C484.4 27.2695 488.844 31.5742 488.844 40.1836L488.844 46.5957L488.816 46.5957Z" fill="#F4EFE8" fill-opacity="1.000000" fill-rule="nonzero"/>
	<path id="Vector" d="M602.414 59.9707L591.418 59.9707L591.418 42.377L508.732 42.377L508.732 59.9707L497.852 59.9707L497.852 18.8926C497.852 9.84961 502.209 5.34375 510.982 5.34375L589.283 5.34375C598.057 5.34375 602.443 9.9082 602.443 19.0078L602.443 59.9707L602.414 59.9707ZM508.732 31.459L591.418 31.459L591.418 20.5957C591.418 17.707 589.975 16.2637 587.061 16.2637L513.09 16.2637C510.176 16.2637 508.732 17.7363 508.732 20.7402L508.732 31.459Z" fill="#F4EFE8" fill-opacity="1.000000" fill-rule="nonzero"/>
	<path id="Vector" d="M661.203 38.0742L661.203 27.2695L715.662 27.2695L715.662 46.5664C715.662 55.5215 711.305 60 702.531 60L624.115 60C615.342 60 610.955 55.5215 610.984 46.5957L611.129 18.5742C611.158 9.84961 615.457 5.48828 623.973 5.48828L715.635 5.48828L715.635 16.3789L626.193 16.3789C623.395 16.3789 621.98 17.9395 621.98 21.0879L621.98 44.6602C621.98 47.6348 623.395 49.1094 626.193 49.1094L700.424 49.1094C703.34 49.1094 704.754 47.6348 704.754 44.6895L704.754 38.1016L661.203 38.0742Z" fill="#F4EFE8" fill-opacity="1.000000" fill-rule="nonzero"/>
	<path id="Vector" d="M829.207 59.9707L724.557 59.9707L724.557 5.37305L829.207 5.37305L829.207 16.2637L735.553 16.2637L735.553 27.2695L829.207 27.2695L829.207 38.1602L735.553 38.1602L735.553 49.0801L829.207 49.0801L829.207 59.9707Z" fill="#F4EFE8" fill-opacity="1.000000" fill-rule="nonzero"/>
	<path id="Vector" d="M838.152 51.1602C838.152 49.7168 838.873 48.9648 840.316 48.9648L846.955 48.9648C848.398 48.9648 849.119 49.7168 849.119 51.1895L849.119 57.7754C849.119 59.2207 848.369 59.9707 846.896 59.9707L840.287 59.9707C838.844 59.9707 838.123 59.2207 838.123 57.6895L838.123 51.1602L838.152 51.1602Z" fill="#F4EFE8" fill-opacity="1.000000" fill-rule="nonzero"/>
	<path id="Vector" d="M888.885 29.5801L927.904 29.5801C927.846 38.7676 927.529 44.7754 927.01 47.5488C926.402 50.6113 925.422 52.8926 924.123 54.4238C922.824 55.9844 920.834 57.168 918.119 58.0938C914.455 59.2773 906.201 59.8848 893.416 59.8848C881.352 59.8848 872.838 59.5078 867.816 58.6992C863.457 58.0059 860.283 56.0996 858.35 53.0078C856.156 49.5703 855.088 41.8867 855.088 29.9844C855.088 21.7227 855.693 15.3105 856.877 10.6602C858.002 6.29688 860.715 3.37891 864.986 2.05078C869.23 0.693359 877.6 0 890.096 0C894.195 0 898.783 0.0859375 903.893 0.318359C909 0.548828 912.463 0.779297 914.34 1.03906C918.148 1.56055 921.266 3.0332 923.633 5.45898C925.076 6.93359 926.057 8.66602 926.635 10.6016C927.211 12.5371 927.529 15.3105 927.615 18.8633L919.418 18.8633C919.332 14.2422 918.697 11.3242 917.514 10.1387C916.734 9.38867 915.609 8.83984 914.195 8.49219C912.781 8.14648 910.5 7.85742 907.385 7.62695C903.113 7.33789 897.803 7.19336 891.482 7.19336C883.141 7.19336 877.137 7.42383 873.473 7.85742C869.807 8.29102 867.354 9.07031 866.17 10.2266C865.074 11.2656 864.295 13.1719 863.891 15.8887C863.486 18.6035 863.256 22.9648 863.256 28.9453C863.256 37.8711 863.631 43.7363 864.352 46.5098C864.814 48.1836 865.535 49.3984 866.545 50.207C867.527 50.9863 869.027 51.5645 870.99 51.8828C874.857 52.4883 883.371 52.8066 896.531 52.8066C903.805 52.8066 909.174 52.5176 912.607 51.9395C915.754 51.4199 917.744 50.293 918.611 48.5312C919.447 46.7695 919.938 42.8105 920.025 36.6289L888.971 36.6289L888.971 29.6094L888.885 29.6094L888.885 29.5801Z" fill="#F4EFE8" fill-opacity="1.000000" fill-rule="nonzero"/>
	<path id="Vector" d="M973.131 0.0859375C983.289 0.0859375 990.447 0.404297 994.631 1.06836C998.816 1.73242 1001.85 2.97461 1003.75 4.88086C1004.96 6.06641 1005.89 7.48047 1006.49 9.12695C1007.1 10.7734 1007.59 13.0859 1007.94 16.0605C1008.37 19.7871 1008.6 24.5254 1008.6 30.2734C1008.6 37.582 1008.25 43.1289 1007.59 46.9121C1006.9 50.668 1005.71 53.4121 1004.04 55.1738C1002.28 57.0527 999.422 58.2949 995.439 58.9883C991.457 59.6816 984.906 59.998 975.814 59.998C971.34 59.998 966.377 59.9121 960.922 59.7676C955.467 59.623 951.889 59.4785 950.186 59.334C947.213 59.0449 944.875 58.5547 943.172 57.8906C941.471 57.2266 939.912 56.1562 938.613 54.7422C936.852 52.8633 935.641 50.2637 935.062 46.8848C934.457 43.5039 934.168 37.8418 934.168 29.7832C934.168 20.3066 934.832 13.5762 936.131 9.61914C937.689 4.91016 941.268 2.10742 946.896 1.29883C952.004 0.519531 960.748 0.115234 973.131 0.0859375ZM968.57 7.2207C960.258 7.2207 954.141 7.53906 950.271 8.20312C948.021 8.57812 946.377 9.21484 945.365 10.1387C944.385 11.0625 943.664 12.5371 943.26 14.6172C942.596 17.9395 942.277 22.7617 942.277 29.1758C942.277 35.7617 942.451 40.5293 942.826 43.5332C943.201 46.5371 943.836 48.5586 944.818 49.5703C945.568 50.4082 946.664 51.0156 948.078 51.3906C949.521 51.7656 951.744 52.0547 954.832 52.2578C959.912 52.6035 965.828 52.7773 972.582 52.7773C982.164 52.7773 989.148 52.4023 993.506 51.5918C996.912 51.0156 998.961 48.9922 999.625 45.5254C1000.29 41.7988 1000.61 36.7441 1000.61 30.3594C1000.61 22.5605 1000.32 17.043 999.74 13.8652C999.162 10.6016 996.912 8.66602 992.986 8.05859C990.678 7.71289 988.109 7.50977 985.223 7.39453C982.309 7.33594 976.768 7.2793 968.57 7.2207Z" fill="#F4EFE8" fill-opacity="1.000000" fill-rule="nonzero"/>
	<path id="Vector" d="M1016.34 59.7988L1016.34 0.173828L1053.45 0.173828C1063.52 0.289062 1069.96 0.548828 1072.76 0.925781C1077.67 1.56055 1081.07 3.78516 1082.98 7.56836C1084.22 10.1113 1084.85 13.6348 1084.85 18.1992C1084.85 21.6367 1084.65 24.2656 1084.3 26.0566C1083.93 27.8477 1083.24 29.293 1082.28 30.3613C1080.75 32.0938 1078.33 33.3086 1075.01 34.002C1077.58 34.4336 1079.63 35.4453 1081.13 36.9473C1082.25 38.1602 1083 39.6055 1083.32 41.2812C1083.64 42.9844 1083.81 46.3066 1083.81 51.3047L1083.81 59.7695L1075.85 59.7695L1075.85 54.0781C1075.85 49.2246 1075.76 45.875 1075.53 43.9961C1074.95 40.2129 1072.82 37.9883 1069.12 37.3809C1067.68 37.1797 1066.38 37.0625 1065.23 37.0059C1064.1 36.9473 1060.15 36.9473 1053.45 36.918L1024.27 36.918L1024.27 59.7988L1016.34 59.7988ZM1024.27 29.9277L1053.42 29.9277C1061.16 29.9277 1066.12 29.8418 1068.31 29.6094C1070.51 29.3789 1072.27 28.8301 1073.65 27.9629C1075.7 26.6055 1076.71 23.3125 1076.71 18.0547C1076.71 13.5195 1075.76 10.5742 1073.88 9.24414C1072.67 8.37695 1070.77 7.80078 1068.17 7.54102C1065.57 7.2793 1060.67 7.16406 1053.48 7.16406L1024.27 7.16406L1024.27 29.9277Z" fill="#F4EFE8" fill-opacity="1.000000" fill-rule="nonzero"/>
	<path id="Vector" d="M1092.27 59.7988L1092.27 0.173828L1150.57 0.173828L1150.57 7.16406L1100.21 7.16406L1100.21 25.3926L1148.44 25.3926L1148.44 32.3555L1100.21 32.3555L1100.21 52.8066L1150.66 52.8066L1150.66 59.7988L1092.27 59.7988Z" fill="#F4EFE8" fill-opacity="1.000000" fill-rule="nonzero"/>
	<path id="Vector" d="M1156.31 0.173828L1164.28 0.173828L1164.28 52.8066L1211.23 52.8066L1211.23 59.7988L1156.31 59.7988L1156.31 0.173828Z" fill="#F4EFE8" fill-opacity="1.000000" fill-rule="nonzero"/>
	<path id="Vector" d="M1215.74 0.173828L1223.7 0.173828L1223.7 59.7988L1215.74 59.7988L1215.74 0.173828Z" fill="#F4EFE8" fill-opacity="1.000000" fill-rule="nonzero"/>
	<path id="Vector" d="M1232.56 0.173828L1240.53 0.173828L1240.53 25.8262L1250.86 25.8262L1289.45 0.173828L1303.36 0.173828L1259.09 29.2637L1305.67 59.7988L1291.61 59.7988L1250.86 32.7871L1240.53 32.7871L1240.53 59.7988L1232.56 59.7988L1232.56 0.173828Z" fill="#F4EFE8" fill-opacity="1.000000" fill-rule="nonzero"/>
	<path id="Vector" d="M1345.41 0.0859375C1355.57 0.0859375 1362.73 0.404297 1366.91 1.06836C1371.1 1.73242 1374.13 2.97461 1376.03 4.88086C1377.24 6.06641 1378.17 7.48047 1378.77 9.12695C1379.38 10.7734 1379.87 13.0859 1380.21 16.0605C1380.65 19.7871 1380.88 24.5254 1380.88 30.2734C1380.88 37.582 1380.53 43.1289 1379.87 46.9121C1379.21 50.668 1377.99 53.4121 1376.32 55.1738C1374.56 57.0527 1371.7 58.2949 1367.72 58.9883C1363.74 59.6816 1357.19 59.998 1348.09 59.998C1343.62 59.998 1338.66 59.9121 1333.2 59.7676C1327.75 59.623 1324.17 59.4785 1322.46 59.334C1319.52 59.0449 1317.15 58.5547 1315.45 57.8906C1313.75 57.2266 1312.19 56.1562 1310.89 54.7422C1309.13 52.8633 1307.92 50.2637 1307.34 46.8848C1306.74 43.5039 1306.45 37.8418 1306.45 29.7832C1306.45 20.3066 1307.11 13.5762 1308.41 9.61914C1309.97 4.91016 1313.55 2.10742 1319.18 1.29883C1324.28 0.519531 1333.03 0.115234 1345.41 0.0859375ZM1340.85 7.2207C1332.54 7.2207 1326.42 7.53906 1322.55 8.20312C1320.3 8.57812 1318.66 9.21484 1317.64 10.1387C1316.66 11.0625 1315.94 12.5371 1315.54 14.6172C1314.88 17.9395 1314.56 22.7617 1314.56 29.1758C1314.56 35.7617 1314.73 40.5293 1315.11 43.5332C1315.48 46.5371 1316.12 48.5586 1317.1 49.5703C1317.85 50.4082 1318.94 51.0156 1320.36 51.3906C1321.8 51.7656 1324.02 52.0547 1327.11 52.2578C1332.19 52.6035 1338.11 52.7773 1344.86 52.7773C1354.44 52.7773 1361.43 52.4023 1365.79 51.5918C1369.19 51.0156 1371.24 48.9922 1371.9 45.5254C1372.57 41.7988 1372.88 36.7441 1372.88 30.3594C1372.88 22.5605 1372.6 17.043 1372.02 13.8652C1371.44 10.6016 1369.19 8.66602 1365.27 8.05859C1362.96 7.71289 1360.39 7.50977 1357.5 7.39453C1354.59 7.33594 1349.05 7.2793 1340.85 7.2207Z" fill="#F4EFE8" fill-opacity="1.000000" fill-rule="nonzero"/>
	<path id="Vector" d="M1381.66 0.173828L1390.43 0.173828L1419.9 52.4609L1422.7 52.4609L1451.5 0.173828L1460.36 0.173828L1427.49 59.7988L1415.22 59.7988L1381.66 0.173828Z" fill="#F4EFE8" fill-opacity="1.000000" fill-rule="nonzero"/>
</svg>
