<svg width="621.371094" height="99.998047" viewBox="0 0 621.371 99.998" fill="none" xmlns="http://www.w3.org/2000/svg" xmlns:xlink="http://www.w3.org/1999/xlink">
	<desc>
			Created with Pixso.
	</desc>
	<defs/>
	<path id="Vector" d="M55.1016 27.2656L8.04688 9.50781L8.04688 39.9707L0 39.9707L0 0.0800781L8.04688 0.0800781L54.9551 17.627L100.469 0.0800781L108.6 0.0800781L108.6 39.9707L100.574 39.9707L100.596 9.57227L55.1016 27.2656Z" fill="#F4EFE8" fill-opacity="1.000000" fill-rule="nonzero"/>
	<path id="Vector" d="M191.775 39.9746L183.729 39.9746L183.729 27.1016L123.221 27.1016L123.221 39.9746L115.258 39.9746L115.258 9.91406C115.258 3.29688 118.447 0 124.867 0L182.145 0C188.566 0 191.775 3.33984 191.775 10L191.775 39.9746ZM123.221 19.1094L183.729 19.1094L183.729 11.1621C183.729 9.04688 182.674 7.99023 180.541 7.99023L126.41 7.99023C124.275 7.99023 123.221 9.06836 123.221 11.2676L123.221 19.1094Z" fill="#F4EFE8" fill-opacity="1.000000" fill-rule="nonzero"/>
	<path id="Vector" d="M274.66 30.1855C274.66 36.7188 271.408 39.9941 264.902 39.9941L198.078 39.9941L198.184 32.0254L263.467 32.0254C265.578 32.0254 266.635 31.0527 266.697 29.1074L266.697 27.1836C266.74 25.0918 265.641 24.0352 263.424 24.0352L207.752 24.0352C201.309 24.0352 198.1 21.0547 198.1 15.0723L198.1 9.78711C198.1 3.31836 201.268 0.103516 207.582 0.103516L274.682 0.0410156L274.682 8.00977L209.293 8.00977C207.201 8.00977 206.125 9.06836 206.125 11.2031L206.125 12.7891C206.125 14.9453 207.16 16.043 209.209 16.043L264.924 16.043C271.428 16.043 274.682 19.1934 274.682 25.4941L274.682 30.1855L274.66 30.1855Z" fill="#F4EFE8" fill-opacity="1.000000" fill-rule="nonzero"/>
	<path id="Vector" d="M357.707 30.1855C357.707 36.7188 354.455 39.9941 347.949 39.9941L281.125 39.9941L281.23 32.0254L346.533 32.0254C348.646 32.0254 349.701 31.0527 349.766 29.1074L349.766 27.1836C349.809 25.0918 348.709 24.0352 346.492 24.0352L290.818 24.0352C284.377 24.0352 281.168 21.0547 281.168 15.0723L281.168 9.78711C281.168 3.31836 284.336 0.103516 290.65 0.103516L357.748 0.0410156L357.748 8.00977L292.361 8.00977C290.27 8.00977 289.193 9.06836 289.193 11.2031L289.193 12.7891C289.193 14.9453 290.229 16.043 292.277 16.043L347.971 16.043C354.475 16.043 357.729 19.1934 357.729 25.4941L357.729 30.1855L357.707 30.1855Z" fill="#F4EFE8" fill-opacity="1.000000" fill-rule="nonzero"/>
	<path id="Vector" d="M440.842 39.9746L432.795 39.9746L432.795 27.1016L372.287 27.1016L372.287 39.9746L364.324 39.9746L364.324 9.91406C364.324 3.29688 367.514 0 373.934 0L431.232 0C437.652 0 440.863 3.33984 440.863 10L440.863 39.9746L440.842 39.9746ZM372.287 19.1094L432.795 19.1094L432.795 11.1621C432.795 9.04688 431.74 7.99023 429.607 7.99023L375.477 7.99023C373.342 7.99023 372.287 9.06836 372.287 11.2676L372.287 19.1094Z" fill="#F4EFE8" fill-opacity="1.000000" fill-rule="nonzero"/>
	<path id="Vector" d="M483.863 23.9551L483.863 16.0488L523.717 16.0488L523.717 30.1699C523.717 36.7227 520.527 40 514.107 40L456.723 40C450.303 40 447.092 36.7227 447.113 30.1914L447.219 9.68555C447.24 3.30078 450.387 0.109375 456.617 0.109375L523.695 0.109375L523.695 8.07812L458.244 8.07812C456.195 8.07812 455.16 9.2207 455.16 11.5254L455.16 28.7754C455.16 30.9531 456.195 32.0312 458.244 32.0312L512.564 32.0312C514.697 32.0312 515.732 30.9531 515.732 28.7969L515.732 23.9766L483.863 23.9551Z" fill="#F4EFE8" fill-opacity="1.000000" fill-rule="nonzero"/>
	<path id="Vector" d="M606.805 39.9707L530.223 39.9707L530.223 0.0175781L606.805 0.0175781L606.805 7.98633L538.27 7.98633L538.27 16.041L606.805 16.041L606.805 24.0117L538.27 24.0117L538.27 32.002L606.805 32.002L606.805 39.9707Z" fill="#F4EFE8" fill-opacity="1.000000" fill-rule="nonzero"/>
	<path id="Vector" d="M613.346 33.5293C613.346 32.4707 613.873 31.9219 614.93 31.9219L619.787 31.9219C620.844 31.9219 621.371 32.4707 621.371 33.5488L621.371 38.3691C621.371 39.4258 620.822 39.9766 619.744 39.9766L614.908 39.9766C613.852 39.9766 613.324 39.4258 613.324 38.3066L613.324 33.5293L613.346 33.5293Z" fill="#F4EFE8" fill-opacity="1.000000" fill-rule="nonzero"/>
	<path id="Vector" d="M131.463 79.7207L157.475 79.7207C157.438 85.8438 157.225 89.8496 156.879 91.6992C156.475 93.7402 155.82 95.2617 154.955 96.2832C154.088 97.3223 152.762 98.1113 150.953 98.7285C148.51 99.5176 143.006 99.9219 134.482 99.9219C126.439 99.9219 120.764 99.6719 117.416 99.1328C114.512 98.6699 112.395 97.3984 111.105 95.3379C109.643 93.0469 108.932 87.9238 108.932 79.9902C108.932 74.4824 109.336 70.207 110.125 67.1055C110.875 64.1973 112.684 62.2539 115.531 61.3672C118.359 60.4629 123.939 60 132.27 60C135.002 60 138.061 60.0586 141.467 60.2109C144.873 60.3652 147.182 60.5195 148.432 60.6934C150.973 61.0391 153.049 62.0215 154.627 63.6406C155.59 64.6211 156.244 65.7773 156.629 67.0684C157.014 68.3574 157.225 70.207 157.283 72.5762L151.818 72.5762C151.76 69.4941 151.338 67.5488 150.549 66.7598C150.029 66.2598 149.279 65.8926 148.336 65.6621C147.393 65.4316 145.873 65.2383 143.795 65.084C140.947 64.8906 137.408 64.7949 133.193 64.7949C127.633 64.7949 123.631 64.9492 121.188 65.2383C118.744 65.5273 117.109 66.0469 116.32 66.8164C115.588 67.5098 115.068 68.7812 114.801 70.5918C114.531 72.4023 114.377 75.3105 114.377 79.2969C114.377 85.248 114.627 89.1562 115.107 91.0059C115.416 92.123 115.896 92.9316 116.57 93.4707C117.225 93.9902 118.225 94.375 119.533 94.5879C122.111 94.9922 127.787 95.2031 136.561 95.2031C141.41 95.2031 144.988 95.0117 147.277 94.627C149.375 94.2793 150.703 93.5293 151.279 92.3535C151.838 91.1797 152.164 88.541 152.223 84.4199L131.52 84.4199L131.52 79.7402L131.463 79.7402L131.463 79.7207Z" fill="#F4EFE8" fill-opacity="1.000000" fill-rule="nonzero"/>
	<path id="Vector" d="M187.631 60.0566C194.402 60.0566 199.176 60.2676 201.965 60.7109C204.754 61.1543 206.775 61.9824 208.045 63.2539C208.854 64.043 209.469 64.9863 209.873 66.084C210.277 67.1816 210.604 68.7227 210.834 70.707C211.123 73.1914 211.277 76.3496 211.277 80.1816C211.277 85.0527 211.047 88.752 210.604 91.2734C210.143 93.7773 209.354 95.6074 208.236 96.7812C207.062 98.0332 205.158 98.8613 202.504 99.3242C199.848 99.7871 195.48 99.998 189.42 99.998C186.438 99.998 183.129 99.9395 179.492 99.8438C175.855 99.748 173.471 99.6523 172.334 99.5547C170.354 99.3633 168.795 99.0352 167.66 98.5918C166.523 98.1484 165.484 97.4375 164.619 96.4922C163.445 95.2422 162.637 93.5078 162.252 91.2539C161.85 89.002 161.656 85.2266 161.656 79.8535C161.656 73.5371 162.1 69.0508 162.965 66.4121C164.004 63.2734 166.389 61.4043 170.141 60.8652C173.547 60.3457 179.377 60.0762 187.631 60.0566ZM184.59 64.8125C179.049 64.8125 174.971 65.0254 172.393 65.4688C170.893 65.7188 169.795 66.1426 169.121 66.7578C168.467 67.375 167.986 68.3574 167.717 69.7441C167.273 71.959 167.062 75.1738 167.062 79.4492C167.062 83.8398 167.178 87.0176 167.428 89.0215C167.678 91.0234 168.102 92.3711 168.756 93.0449C169.256 93.6035 169.988 94.0078 170.93 94.2598C171.893 94.5098 173.373 94.7012 175.432 94.8359C178.818 95.0684 182.764 95.1836 187.266 95.1836C193.652 95.1836 198.309 94.9336 201.215 94.3945C203.484 94.0078 204.852 92.6602 205.293 90.3496C205.736 87.8652 205.947 84.4961 205.947 80.2383C205.947 75.0391 205.756 71.3613 205.371 69.2422C204.986 67.0664 203.484 65.7754 200.867 65.3711C199.328 65.1406 197.617 65.0059 195.693 64.9297C193.75 64.8906 190.055 64.8516 184.59 64.8125Z" fill="#F4EFE8" fill-opacity="1.000000" fill-rule="nonzero"/>
	<path id="Vector" d="M216.428 99.8633L216.428 60.1152L241.17 60.1152C247.885 60.1914 252.176 60.3652 254.043 60.6152C257.312 61.0391 259.584 62.5234 260.854 65.0449C261.682 66.7402 262.104 69.0898 262.104 72.1328C262.104 74.4238 261.969 76.1758 261.738 77.3711C261.488 78.5645 261.027 79.5273 260.393 80.2402C259.373 81.3945 257.756 82.2051 255.543 82.666C257.256 82.9551 258.621 83.6289 259.623 84.6309C260.373 85.4395 260.873 86.4023 261.084 87.5195C261.297 88.6562 261.412 90.8711 261.412 94.2012L261.412 99.8457L256.102 99.8457L256.102 96.0508C256.102 92.8164 256.043 90.582 255.891 89.3301C255.504 86.8066 254.082 85.3242 251.619 84.9199C250.656 84.7852 249.791 84.707 249.021 84.6699C248.27 84.6309 245.635 84.6309 241.17 84.6113L221.719 84.6113L221.719 99.8633L216.428 99.8633ZM221.719 79.9512L241.152 79.9512C246.309 79.9512 249.617 79.8926 251.08 79.7402C252.541 79.5859 253.715 79.2188 254.639 78.6406C256.006 77.7363 256.678 75.541 256.678 72.0352C256.678 69.0117 256.043 67.0488 254.793 66.1621C253.984 65.584 252.715 65.1992 250.982 65.0254C249.252 64.8535 245.98 64.7754 241.189 64.7754L221.719 64.7754L221.719 79.9512Z" fill="#F4EFE8" fill-opacity="1.000000" fill-rule="nonzero"/>
	<path id="Vector" d="M267.055 99.8633L267.055 60.1152L305.92 60.1152L305.92 64.7754L272.346 64.7754L272.346 76.9277L304.496 76.9277L304.496 81.5684L272.346 81.5684L272.346 95.2031L305.979 95.2031L305.979 99.8633L267.055 99.8633Z" fill="#F4EFE8" fill-opacity="1.000000" fill-rule="nonzero"/>
	<path id="Vector" d="M309.744 60.1152L315.055 60.1152L315.055 95.2031L346.359 95.2031L346.359 99.8633L309.744 99.8633L309.744 60.1152Z" fill="#F4EFE8" fill-opacity="1.000000" fill-rule="nonzero"/>
	<path id="Vector" d="M349.355 60.1152L354.666 60.1152L354.666 99.8633L349.355 99.8633L349.355 60.1152Z" fill="#F4EFE8" fill-opacity="1.000000" fill-rule="nonzero"/>
	<path id="Vector" d="M360.572 60.1152L365.883 60.1152L365.883 77.2168L372.771 77.2168L398.494 60.1152L407.77 60.1152L378.254 79.5078L409.309 99.8633L399.938 99.8633L372.771 81.8574L365.883 81.8574L365.883 99.8633L360.572 99.8633L360.572 60.1152Z" fill="#F4EFE8" fill-opacity="1.000000" fill-rule="nonzero"/>
	<path id="Vector" d="M435.811 60.0566C442.582 60.0566 447.355 60.2676 450.145 60.7109C452.934 61.1543 454.955 61.9824 456.225 63.2539C457.033 64.043 457.648 64.9863 458.053 66.084C458.457 67.1816 458.783 68.7227 459.014 70.707C459.303 73.1914 459.457 76.3496 459.457 80.1816C459.457 85.0527 459.227 88.752 458.783 91.2734C458.34 93.7773 457.533 95.6074 456.416 96.7812C455.242 98.0332 453.338 98.8613 450.684 99.3242C448.027 99.7871 443.66 99.998 437.6 99.998C434.617 99.998 431.309 99.9395 427.672 99.8438C424.035 99.748 421.65 99.6523 420.514 99.5547C418.551 99.3633 416.975 99.0352 415.84 98.5918C414.703 98.1484 413.664 97.4375 412.799 96.4922C411.625 95.2422 410.816 93.5078 410.432 91.2539C410.029 89.002 409.836 85.2266 409.836 79.8535C409.836 73.5371 410.279 69.0508 411.145 66.4121C412.184 63.2734 414.568 61.4043 418.32 60.8652C421.727 60.3457 427.557 60.0762 435.811 60.0566ZM432.77 64.8125C427.229 64.8125 423.15 65.0254 420.572 65.4688C419.07 65.7188 417.975 66.1426 417.301 66.7578C416.646 67.375 416.166 68.3574 415.896 69.7441C415.453 71.959 415.242 75.1738 415.242 79.4492C415.242 83.8398 415.357 87.0176 415.607 89.0215C415.857 91.0234 416.281 92.3711 416.936 93.0449C417.436 93.6035 418.166 94.0078 419.109 94.2598C420.072 94.5098 421.553 94.7012 423.611 94.8359C426.998 95.0684 430.943 95.1836 435.445 95.1836C441.832 95.1836 446.488 94.9336 449.395 94.3945C451.664 94.0078 453.031 92.6602 453.473 90.3496C453.916 87.8652 454.127 84.4961 454.127 80.2383C454.127 75.0391 453.936 71.3613 453.551 69.2422C453.166 67.0664 451.664 65.7754 449.047 65.3711C447.508 65.1406 445.797 65.0059 443.871 64.9297C441.93 64.8906 438.234 64.8516 432.77 64.8125Z" fill="#F4EFE8" fill-opacity="1.000000" fill-rule="nonzero"/>
	<path id="Vector" d="M459.971 60.1152L465.82 60.1152L485.465 94.9727L487.33 94.9727L506.533 60.1152L512.439 60.1152L490.523 99.8633L482.348 99.8633L459.971 60.1152Z" fill="#F4EFE8" fill-opacity="1.000000" fill-rule="nonzero"/>
</svg>
