<svg width="59.000000" height="59.051758" viewBox="0 0 59 59.0518" fill="none" xmlns="http://www.w3.org/2000/svg" xmlns:xlink="http://www.w3.org/1999/xlink">
	<desc>
			Created with Pixso.
	</desc>
	<defs/>
	<path id="Vector" d="M57.5 29.5264C57.5 45.0059 44.9648 57.5518 29.5 57.5518C14.0352 57.5518 1.5 45.0059 1.5 29.5264C1.5 14.0459 14.0371 1.5 29.5 1.5C44.9648 1.5 57.5 14.0459 57.5 29.5264Z" stroke="#FFFFFF" stroke-opacity="1.000000" stroke-width="3.000000"/>
	<path id="Vector" d="M29.6113 39.8271L13.502 33.751L13.502 43.8945L13.502 44.3945L13.002 44.3945L10.1367 44.3945L9.63672 44.3945L9.63672 43.8945L9.63672 29.6641L9.63672 29.167L10.1367 29.167L13.0078 29.167L13.0957 29.167L13.1816 29.1973L29.7324 35.3916L45.7832 29.2002L45.873 29.167L45.9609 29.167L48.8613 29.167L49.3613 29.167L49.3613 29.6641L49.3613 43.8945L49.3613 44.3945L48.8613 44.3945L45.998 44.3945L45.498 44.3945L45.498 43.8945L45.5098 33.7812L29.9648 39.8271L29.7891 39.8945L29.6113 39.8271Z" fill="#FFFFFF" fill-opacity="1.000000" fill-rule="nonzero"/>
	<path id="Vector" d="M28.8027 19.9893L39.293 19.9893L39.6621 19.9893L39.6582 20.3594C39.6484 21.6094 39.6289 22.6348 39.5859 23.4375C39.5449 24.2646 39.4844 24.873 39.4082 25.2598C39.3203 25.6934 39.209 26.0762 39.0684 26.4053C38.9238 26.748 38.752 27.0371 38.5469 27.2725C38.3457 27.5117 38.0938 27.7197 37.7891 27.9082C37.4941 28.0859 37.1543 28.2402 36.7656 28.3721L36.7617 28.3721C36.2402 28.54 35.4121 28.667 34.2734 28.751C33.1523 28.832 31.7285 28.8721 30.002 28.8721C28.3906 28.8721 27 28.8457 25.832 28.792C24.6738 28.7383 23.75 28.6572 23.0645 28.5498C22.4297 28.4492 21.8828 28.2578 21.4199 27.9785C20.9473 27.6924 20.5605 27.3193 20.2676 26.8555C19.9453 26.3486 19.707 25.5518 19.5527 24.4668C19.4023 23.4141 19.3281 22.0801 19.3281 20.4668C19.3281 18.2217 19.4922 16.4609 19.8223 15.1807C19.9902 14.5283 20.2754 13.9873 20.6855 13.5537C21.0918 13.1201 21.6113 12.8008 22.2461 12.6025C22.8477 12.4072 23.7227 12.2666 24.8711 12.1729C26.0059 12.0781 27.416 12.0312 29.1016 12.0312C29.6152 12.0312 30.2012 12.0381 30.8613 12.0547C31.4922 12.0684 32.1484 12.0918 32.8262 12.1221C33.5273 12.1523 34.1094 12.1826 34.5664 12.2158C35.0391 12.25 35.4043 12.2832 35.666 12.3174C36.2168 12.3906 36.7168 12.5391 37.168 12.75C37.625 12.9658 38.0273 13.2549 38.377 13.6113L38.3789 13.6143C38.5918 13.8359 38.7734 14.0742 38.9199 14.3301C39.0684 14.5859 39.1855 14.8574 39.2734 15.1504C39.3574 15.4326 39.4238 15.7715 39.4668 16.165C39.5117 16.5381 39.5391 16.9746 39.5488 17.4688L39.5547 17.8457L39.1816 17.8457L36.9766 17.8457L36.6172 17.8457L36.6094 17.4824C36.5996 16.8906 36.5527 16.4072 36.4688 16.0342C36.3984 15.7178 36.3105 15.5029 36.2031 15.3916C36.123 15.3184 36.0254 15.251 35.9082 15.1934C35.7852 15.1328 35.6406 15.0791 35.4824 15.043C35.3008 14.999 35.0664 14.959 34.7734 14.9219C34.4883 14.8848 34.1328 14.8506 33.7129 14.8174C33.1289 14.7773 32.4863 14.75 31.7852 14.7305C31.1133 14.7129 30.3379 14.7031 29.4609 14.7031C28.3262 14.7031 27.373 14.7168 26.5938 14.7471C25.8027 14.7773 25.1562 14.8203 24.666 14.8779C24.1973 14.9316 23.8105 15.0088 23.5078 15.1064C23.2363 15.1934 23.0391 15.2949 22.918 15.4092C22.8105 15.5098 22.7168 15.6641 22.6328 15.873C22.5391 16.1016 22.4668 16.3838 22.4141 16.7158C22.3594 17.0762 22.3164 17.54 22.2891 18.1045C22.2637 18.6689 22.25 19.3574 22.25 20.1709C22.25 21.374 22.2734 22.3594 22.3203 23.1318C22.3672 23.8916 22.4336 24.4463 22.5273 24.7988C22.582 24.9902 22.6484 25.1553 22.7285 25.293C22.8027 25.4209 22.8945 25.5215 22.9922 25.6025C23.0918 25.6865 23.2266 25.7568 23.3867 25.8174C23.5625 25.8848 23.7734 25.9346 24.0117 25.9756C24.5195 26.0557 25.3418 26.1162 26.4766 26.1572C27.5918 26.1973 29.043 26.2178 30.8223 26.2178C31.8027 26.2178 32.6406 26.1973 33.3438 26.1602C34.0508 26.1201 34.6328 26.0625 35.0859 25.9893C35.4648 25.9248 35.7676 25.8311 36 25.6963C36.2012 25.582 36.3457 25.4414 36.4258 25.2725C36.5234 25.0742 36.5996 24.7285 36.6582 24.2344C36.7109 23.791 36.7441 23.25 36.7617 22.6074L28.791 22.6074L28.4199 22.6074L28.4199 22.2383L28.4199 20.3623L28.4199 19.9932L28.8027 19.9932L28.8027 19.9893Z" fill="#FFFFFF" fill-opacity="1.000000" fill-rule="nonzero"/>
	<path id="Vector" d="M29.498 30.5771C30.293 30.5771 30.9375 31.2227 30.9375 32.0186C30.9375 32.8154 30.293 33.4609 29.498 33.4609C28.7012 33.4609 28.0566 32.8154 28.0566 32.0186C28.0605 31.2227 28.7051 30.5771 29.498 30.5771Z" fill="#FFFFFF" fill-opacity="1.000000" fill-rule="evenodd"/>
</svg>
