<svg width="18.750000" height="18.750000" viewBox="0 0 18.75 18.75" fill="none" xmlns="http://www.w3.org/2000/svg">
	<defs/>
	<path id="Vector" d="M17.8477 12.6055L13.4297 10.627L13.418 10.6211C13.1895 10.5234 12.9395 10.4824 12.6914 10.5059C12.4434 10.5293 12.2031 10.6133 11.9961 10.752C11.9727 10.7676 11.9492 10.7852 11.9258 10.8047L9.64453 12.75C8.19922 12.0469 6.70508 10.5664 6.00391 9.13867L7.95117 6.82227C7.9707 6.79883 7.98828 6.77539 8.00586 6.75C8.14062 6.54297 8.22266 6.30664 8.24414 6.06055C8.26562 5.81445 8.22656 5.56641 8.12891 5.33984L8.12891 5.32812L6.14453 0.904297C6.01562 0.607422 5.79492 0.359375 5.51367 0.199219C5.23242 0.0371094 4.9082 -0.0273438 4.58594 0.0117188C3.31641 0.177734 2.15039 0.802734 1.30664 1.76562C0.460938 2.73047 -0.00195312 3.96875 0 5.25C0 12.6934 6.05664 18.75 13.5 18.75C14.7812 18.752 16.0195 18.2871 16.9844 17.4434C17.9473 16.5996 18.5723 15.4336 18.7383 14.1641C18.7773 13.8418 18.7129 13.5176 18.5527 13.2363C18.3906 12.9551 18.1445 12.7344 17.8477 12.6055ZM13.5 17.25C10.3184 17.2461 7.26758 15.9805 5.01953 13.7305C2.76953 11.4824 1.50391 8.43164 1.5 5.25C1.49609 4.33398 1.82617 3.44922 2.42773 2.75781C3.0293 2.06836 3.86133 1.62109 4.76953 1.5C4.76953 1.50391 4.76953 1.50781 4.76953 1.51172L6.73828 5.91797L4.80078 8.23633C4.78125 8.25977 4.76172 8.2832 4.74609 8.30859C4.60547 8.52539 4.52344 8.77539 4.50586 9.0332C4.49023 9.29102 4.54102 9.54883 4.65234 9.78125C5.50195 11.5176 7.25195 13.2559 9.00781 14.1035C9.24219 14.2148 9.50195 14.2637 9.76172 14.2441C10.0195 14.2266 10.2695 14.1406 10.4844 13.9961C10.5098 13.9805 10.5332 13.9629 10.5547 13.9434L12.834 12L17.2402 13.9727L17.25 13.9727C17.1309 14.8828 16.6836 15.7148 15.9922 16.3184C15.3027 16.9219 14.416 17.252 13.5 17.25Z" fill="#FFFFFF" fillOpacity="1.000000" fillRule="nonzero"/>
</svg>
